<svg width="189" height="391" viewBox="0 0 189 391" fill="none" xmlns="http://www.w3.org/2000/svg">
<g clip-path="url(#clip0_9820_1184)">
<path d="M-0.0406819 4.77609L194.155 -251.51" stroke="#D9D9D9" stroke-linejoin="round" stroke-dasharray="13 13"/>
<path d="M-0.0406819 37.0617L194.155 -219.224" stroke="#D9D9D9" stroke-linejoin="round" stroke-dasharray="13 13"/>
<path d="M-0.0406819 69.3479L194.155 -186.938" stroke="#D9D9D9" stroke-linejoin="round" stroke-dasharray="13 13"/>
<path d="M-0.0406819 101.634L194.155 -154.652" stroke="#D9D9D9" stroke-linejoin="round" stroke-dasharray="13 13"/>
<path d="M-0.0406819 128.778L188.027 -122.366" stroke="#D9D9D9" stroke-linejoin="round" stroke-dasharray="13 13"/>
<path d="M-0.0406819 155.922L188.027 -95.2222" stroke="#D9D9D9" stroke-linejoin="round" stroke-dasharray="13 13"/>
<path d="M-0.0406819 183.066L188.027 -68.0782" stroke="#D9D9D9" stroke-linejoin="round" stroke-dasharray="13 13"/>
<path d="M-0.0406819 210.209L188.027 -40.9346" stroke="#D9D9D9" stroke-linejoin="round" stroke-dasharray="13 13"/>
<path d="M-0.0406819 237.353L188.027 -13.7906" stroke="#D9D9D9" stroke-linejoin="round" stroke-dasharray="13 13"/>
<path d="M-0.0406819 264.497L188.027 13.353" stroke="#D9D9D9" stroke-linejoin="round" stroke-dasharray="13 13"/>
<path d="M-0.0406819 291.641L188.027 40.497" stroke="#D9D9D9" stroke-linejoin="round" stroke-dasharray="13 13"/>
<path d="M-0.0406819 318.784L188.027 67.6406" stroke="#D9D9D9" stroke-linejoin="round" stroke-dasharray="13 13"/>
<path d="M-0.0406819 345.928L188.027 94.7846" stroke="#D9D9D9" stroke-linejoin="round" stroke-dasharray="13 13"/>
<path d="M-0.0406819 373.072L188.027 121.928" stroke="#D9D9D9" stroke-linejoin="round" stroke-dasharray="13 13"/>
<path d="M-0.0406819 400.216L188.027 149.072" stroke="#D9D9D9" stroke-linejoin="round" stroke-dasharray="13 13"/>
<path d="M-0.0406819 427.36L188.027 176.216" stroke="#D9D9D9" stroke-linejoin="round" stroke-dasharray="13 13"/>
<path d="M-0.0406819 454.504L188.027 203.36" stroke="#D9D9D9" stroke-linejoin="round" stroke-dasharray="13 13"/>
<path d="M-0.0406819 481.647L188.027 230.503" stroke="#D9D9D9" stroke-linejoin="round" stroke-dasharray="13 13"/>
<path d="M-0.0406819 508.791L188.027 257.647" stroke="#D9D9D9" stroke-linejoin="round" stroke-dasharray="13 13"/>
<path d="M-0.0406819 535.935L188.027 284.791" stroke="#D9D9D9" stroke-linejoin="round" stroke-dasharray="13 13"/>
<path d="M-0.0406819 563.079L188.027 311.935" stroke="#D9D9D9" stroke-linejoin="round" stroke-dasharray="13 13"/>
<path d="M-0.0406819 590.222L188.027 339.079" stroke="#D9D9D9" stroke-linejoin="round" stroke-dasharray="13 13"/>
<path d="M-0.0406819 617.366L188.027 366.223" stroke="#D9D9D9" stroke-linejoin="round" stroke-dasharray="13 13"/>
</g>
<defs>
<clipPath id="clip0_9820_1184">
<rect width="189" height="448" rx="12" fill="white"/>
</clipPath>
</defs>
</svg>
