<svg width="20" height="20" viewBox="0 0 20 20" fill="none"
    xmlns="http://www.w3.org/2000/svg">
    <g id="Left Icons" clip-path="url(#clip0_4970_25658)">
        <g id="Icon">
            <path d="M10 12.4993C11.3807 12.4993 12.5 11.3801 12.5 9.99935C12.5 8.61864 11.3807 7.49935 10 7.49935C8.61931 7.49935 7.50002 8.61864 7.50002 9.99935C7.50002 11.3801 8.61931 12.4993 10 12.4993Z" stroke="#703efe" stroke-width="1.5" stroke-linecap="round" stroke-linejoin="round"/>
            <path d="M15.6061 12.2721C15.5052 12.5006 15.4752 12.754 15.5197 12.9998C15.5643 13.2455 15.6814 13.4723 15.8561 13.6509L15.9015 13.6963C16.0424 13.837 16.1542 14.0041 16.2304 14.1881C16.3067 14.372 16.3459 14.5692 16.3459 14.7683C16.3459 14.9674 16.3067 15.1646 16.2304 15.3485C16.1542 15.5324 16.0424 15.6995 15.9015 15.8403C15.7608 15.9811 15.5937 16.0929 15.4098 16.1691C15.2258 16.2454 15.0287 16.2846 14.8296 16.2846C14.6305 16.2846 14.4333 16.2454 14.2494 16.1691C14.0654 16.0929 13.8983 15.9811 13.7576 15.8403L13.7121 15.7948C13.5336 15.6202 13.3068 15.503 13.0611 15.4584C12.8153 15.4139 12.5619 15.444 12.3334 15.5448C12.1093 15.6408 11.9182 15.8003 11.7836 16.0035C11.649 16.2068 11.5768 16.445 11.5758 16.6887V16.8175C11.5758 17.2194 11.4161 17.6048 11.132 17.8889C10.8479 18.1731 10.4625 18.3327 10.0606 18.3327C9.65878 18.3327 9.2734 18.1731 8.98925 17.8889C8.70511 17.6048 8.54548 17.2194 8.54548 16.8175V16.7493C8.53961 16.4986 8.45844 16.2554 8.31253 16.0514C8.16661 15.8474 7.9627 15.692 7.72729 15.6054C7.4988 15.5046 7.24533 15.4745 6.99957 15.519C6.75382 15.5636 6.52705 15.6808 6.34851 15.8554L6.30305 15.9009C6.16233 16.0417 5.99523 16.1535 5.81129 16.2297C5.62736 16.306 5.4302 16.3452 5.23108 16.3452C5.03197 16.3452 4.83481 16.306 4.65087 16.2297C4.46693 16.1535 4.29983 16.0417 4.15911 15.9009C4.01824 15.7601 3.90648 15.593 3.83023 15.4091C3.75398 15.2252 3.71474 15.028 3.71474 14.8289C3.71474 14.6298 3.75398 14.4326 3.83023 14.2487C3.90648 14.0647 4.01824 13.8976 4.15911 13.7569L4.20457 13.7115C4.37922 13.5329 4.49637 13.3062 4.54093 13.0604C4.58549 12.8146 4.55541 12.5612 4.45457 12.3327C4.35853 12.1086 4.19908 11.9175 3.99583 11.7829C3.79258 11.6483 3.5544 11.5761 3.31063 11.5751H3.18184C2.78 11.5751 2.39461 11.4155 2.11046 11.1313C1.82632 10.8472 1.66669 10.4618 1.66669 10.06C1.66669 9.65811 1.82632 9.27273 2.11046 8.98858C2.39461 8.70444 2.78 8.5448 3.18184 8.5448H3.25002C3.50077 8.53894 3.74396 8.45777 3.94797 8.31186C4.15199 8.16594 4.30738 7.96203 4.39396 7.72662C4.4948 7.49813 4.52489 7.24466 4.48033 6.9989C4.43577 6.75315 4.31861 6.52638 4.14396 6.34783L4.09851 6.30238C3.95763 6.16166 3.84588 5.99456 3.76963 5.81062C3.69338 5.62669 3.65413 5.42952 3.65413 5.23041C3.65413 5.0313 3.69338 4.83413 3.76963 4.6502C3.84588 4.46626 3.95763 4.29916 4.09851 4.15844C4.23922 4.01757 4.40633 3.90581 4.59026 3.82956C4.7742 3.75331 4.97136 3.71407 5.17048 3.71407C5.36959 3.71407 5.56675 3.75331 5.75069 3.82956C5.93462 3.90581 6.10173 4.01757 6.24244 4.15844L6.2879 4.20389C6.46644 4.37854 6.69321 4.4957 6.93897 4.54026C7.18472 4.58482 7.43819 4.55474 7.66669 4.45389H7.72729C7.95136 4.35786 8.14246 4.19841 8.27706 3.99516C8.41166 3.79191 8.4839 3.55373 8.48487 3.30996V3.18117C8.48487 2.77932 8.6445 2.39394 8.92865 2.10979C9.21279 1.82565 9.59818 1.66602 10 1.66602C10.4019 1.66602 10.7872 1.82565 11.0714 2.10979C11.3555 2.39394 11.5152 2.77932 11.5152 3.18117V3.24935C11.5161 3.49313 11.5884 3.7313 11.723 3.93455C11.8576 4.1378 12.0487 4.29726 12.2727 4.39329C12.5012 4.49413 12.7547 4.52422 13.0005 4.47966C13.2462 4.4351 13.473 4.31794 13.6515 4.14329L13.697 4.09783C13.8377 3.95696 14.0048 3.8452 14.1887 3.76896C14.3727 3.69271 14.5698 3.65346 14.769 3.65346C14.9681 3.65346 15.1652 3.69271 15.3492 3.76896C15.5331 3.8452 15.7002 3.95696 15.8409 4.09783C15.9818 4.23855 16.0936 4.40565 16.1698 4.58959C16.2461 4.77353 16.2853 4.97069 16.2853 5.1698C16.2853 5.36892 16.2461 5.56608 16.1698 5.75002C16.0936 5.93395 15.9818 6.10106 15.8409 6.24177L15.7955 6.28723C15.6208 6.46577 15.5037 6.69254 15.4591 6.9383C15.4145 7.18405 15.4446 7.43752 15.5455 7.66602V7.72662C15.6415 7.95069 15.801 8.14179 16.0042 8.27639C16.2075 8.41099 16.4456 8.48323 16.6894 8.4842H16.8182C17.22 8.4842 17.6054 8.64383 17.8896 8.92798C18.1737 9.21212 18.3334 9.59751 18.3334 9.99935C18.3334 10.4012 18.1737 10.7866 17.8896 11.0707C17.6054 11.3549 17.22 11.5145 16.8182 11.5145H16.75C16.5062 11.5155 16.2681 11.5877 16.0648 11.7223C15.8616 11.8569 15.7021 12.048 15.6061 12.2721Z" stroke="#703efe" stroke-width="1.5" stroke-linecap="round" stroke-linejoin="round"/>
        </g>
    </g>
    <defs>
        <clipPath id="clip0_4970_25658">
            <rect width="20" height="20" fill="white"/>
        </clipPath>
    </defs>
</svg>
