<svg width="20" height="20" viewBox="0 0 20 20" fill="none" xmlns="http://www.w3.org/2000/svg">
<g id="Left Icons">
<path id="Icon" d="M16.6666 10.416V5.66602C16.6666 4.26588 16.6666 3.56582 16.3942 3.03104C16.1545 2.56063 15.772 2.17818 15.3016 1.9385C14.7668 1.66602 14.0668 1.66602 12.6666 1.66602H7.33331C5.93318 1.66602 5.23312 1.66602 4.69834 1.9385C4.22793 2.17818 3.84548 2.56063 3.6058 3.03104C3.33331 3.56582 3.33331 4.26588 3.33331 5.66602V14.3327C3.33331 15.7328 3.33331 16.4329 3.6058 16.9677C3.84548 17.4381 4.22793 17.8205 4.69834 18.0602C5.23312 18.3327 5.93318 18.3327 7.33331 18.3327H9.99998M11.6666 9.16602H6.66665M8.33331 12.4993H6.66665M13.3333 5.83268H6.66665M12.0833 15.8327L13.75 17.4993L17.5 13.7493" stroke="#354558" stroke-width="1.5" stroke-linecap="round" stroke-linejoin="round"/>
</g>
</svg>
