<svg width="20" height="20" viewBox="0 0 20 20" fill="none" xmlns="http://www.w3.org/2000/svg">
<g id="Left Icons">
<path id="Icon" d="M9.16669 9.16667H5.16669C4.23327 9.16667 3.76656 9.16667 3.41004 9.34832C3.09643 9.50811 2.84147 9.76308 2.68168 10.0767C2.50002 10.4332 2.50002 10.8999 2.50002 11.8333V17.5M17.5 17.5V5.16667C17.5 4.23325 17.5 3.76654 17.3184 3.41002C17.1586 3.09641 16.9036 2.84144 16.59 2.68166C16.2335 2.5 15.7668 2.5 14.8334 2.5H11.8334C10.8999 2.5 10.4332 2.5 10.0767 2.68166C9.7631 2.84144 9.50813 3.09641 9.34834 3.41002C9.16669 3.76654 9.16669 4.23325 9.16669 5.16667V17.5M18.3334 17.5H1.66669M12.0834 5.83333H14.5834M12.0834 9.16667H14.5834M12.0834 12.5H14.5834" stroke="#354558" stroke-width="1.5" stroke-linecap="round" stroke-linejoin="round"/>
</g>
</svg>
