<svg width="20" height="20" viewBox="0 0 20 20" fill="none"
    xmlns="http://www.w3.org/2000/svg">
    <g id="Left Icons">
        <path id="Icon" d="M11.6666 1.89063V5.33274C11.6666 5.79945 11.6666 6.03281 11.7575 6.21107C11.8374 6.36787 11.9649 6.49535 12.1217 6.57525C12.2999 6.66608 12.5333 6.66608 13 6.66608H16.4421M13.3333 10.8327H6.66665M13.3333 14.166H6.66665M8.33331 7.49935H6.66665M11.6666 1.66602H7.33331C5.93318 1.66602 5.23312 1.66602 4.69834 1.9385C4.22793 2.17818 3.84548 2.56063 3.6058 3.03104C3.33331 3.56582 3.33331 4.26588 3.33331 5.66602V14.3327C3.33331 15.7328 3.33331 16.4329 3.6058 16.9677C3.84548 17.4381 4.22793 17.8205 4.69834 18.0602C5.23312 18.3327 5.93318 18.3327 7.33331 18.3327H12.6666C14.0668 18.3327 14.7668 18.3327 15.3016 18.0602C15.772 17.8205 16.1545 17.4381 16.3942 16.9677C16.6666 16.4329 16.6666 15.7328 16.6666 14.3327V6.66602L11.6666 1.66602Z" stroke="#703efe" stroke-width="1.5" stroke-linecap="round" stroke-linejoin="round"/>
    </g>
</svg>
