<svg width="20" height="20" viewBox="0 0 20 20" fill="none"
    xmlns="http://www.w3.org/2000/svg">
    <g id="Left Icons">
        <path id="Icon" d="M6.66669 6.66602H6.67502M1.66669 4.33268L1.66669 8.06144C1.66669 8.4691 1.66669 8.67292 1.71274 8.86473C1.75356 9.03479 1.82091 9.19737 1.91229 9.34649C2.01536 9.51468 2.15948 9.65881 2.44773 9.94706L8.83826 16.3376C9.8283 17.3276 10.3233 17.8226 10.8941 18.0081C11.3963 18.1713 11.9371 18.1713 12.4392 18.0081C13.01 17.8226 13.5051 17.3276 14.4951 16.3376L16.3383 14.4944C17.3283 13.5044 17.8233 13.0094 18.0088 12.4386C18.1719 11.9364 18.1719 11.3956 18.0088 10.8935C17.8233 10.3227 17.3283 9.82763 16.3383 8.83759L9.94773 2.44706C9.65948 2.15881 9.51535 2.01468 9.34716 1.91162C9.19804 1.82023 9.03547 1.75289 8.8654 1.71207C8.67359 1.66602 8.46977 1.66602 8.06212 1.66602L4.33335 1.66602C3.39993 1.66602 2.93322 1.66602 2.5767 1.84767C2.2631 2.00746 2.00813 2.26243 1.84834 2.57603C1.66669 2.93255 1.66669 3.39926 1.66669 4.33268ZM7.08335 6.66602C7.08335 6.89613 6.89681 7.08268 6.66669 7.08268C6.43657 7.08268 6.25002 6.89613 6.25002 6.66602C6.25002 6.4359 6.43657 6.24935 6.66669 6.24935C6.89681 6.24935 7.08335 6.4359 7.08335 6.66602Z" stroke="#703efe" stroke-width="1.5" stroke-linecap="round" stroke-linejoin="round"/>
    </g>
</svg>
